<mxfile host="app.diagrams.net" modified="2023-06-04T11:40:44.517Z" agent="Mozilla/5.0 (Windows NT 10.0; Win64; x64) AppleWebKit/537.36 (KHTML, like Gecko) Chrome/114.0.0.0 Safari/537.36" etag="eGvp8dgjiN1GykoBhnxm" version="21.3.7" type="device">
  <diagram name="Страница 1" id="eczT8ZOic_N27SQ7KLjD">
    <mxGraphModel dx="1728" dy="937" grid="1" gridSize="10" guides="1" tooltips="1" connect="1" arrows="1" fold="1" page="1" pageScale="1" pageWidth="827" pageHeight="1169" math="0" shadow="0">
      <root>
        <mxCell id="0" />
        <mxCell id="1" parent="0" />
        <mxCell id="o0toH3FBeBLkS_F7yODT-1" value="Начало" style="strokeWidth=2;html=1;shape=mxgraph.flowchart.terminator;whiteSpace=wrap;" parent="1" vertex="1">
          <mxGeometry x="40" y="40" width="120" height="60" as="geometry" />
        </mxCell>
        <mxCell id="o0toH3FBeBLkS_F7yODT-2" value="" style="endArrow=none;html=1;rounded=0;edgeStyle=orthogonalEdgeStyle;entryX=0.5;entryY=1;entryDx=0;entryDy=0;entryPerimeter=0;exitX=0.5;exitY=0;exitDx=0;exitDy=0;" parent="1" source="o0toH3FBeBLkS_F7yODT-3" target="o0toH3FBeBLkS_F7yODT-1" edge="1">
          <mxGeometry width="50" height="50" relative="1" as="geometry">
            <mxPoint x="100" y="120" as="sourcePoint" />
            <mxPoint x="100" y="120" as="targetPoint" />
            <Array as="points" />
          </mxGeometry>
        </mxCell>
        <mxCell id="o0toH3FBeBLkS_F7yODT-3" value="error = {OK, &quot;&quot;}" style="rounded=0;whiteSpace=wrap;html=1;" parent="1" vertex="1">
          <mxGeometry x="40" y="120" width="120" height="60" as="geometry" />
        </mxCell>
        <mxCell id="o0toH3FBeBLkS_F7yODT-4" value="" style="endArrow=none;html=1;rounded=0;edgeStyle=orthogonalEdgeStyle;entryX=0.5;entryY=1;entryDx=0;entryDy=0;exitX=0.5;exitY=0;exitDx=0;exitDy=0;" parent="1" source="o0toH3FBeBLkS_F7yODT-5" target="o0toH3FBeBLkS_F7yODT-3" edge="1">
          <mxGeometry width="50" height="50" relative="1" as="geometry">
            <mxPoint x="100" y="200" as="sourcePoint" />
            <mxPoint x="150" y="210" as="targetPoint" />
            <Array as="points" />
          </mxGeometry>
        </mxCell>
        <mxCell id="o0toH3FBeBLkS_F7yODT-5" value="&lt;br&gt;error.status_code&lt;br&gt;== OK" style="rhombus;whiteSpace=wrap;html=1;" parent="1" vertex="1">
          <mxGeometry x="40" y="200" width="120" height="60" as="geometry" />
        </mxCell>
        <mxCell id="o0toH3FBeBLkS_F7yODT-6" value="" style="endArrow=none;html=1;rounded=0;edgeStyle=orthogonalEdgeStyle;entryX=0.5;entryY=1;entryDx=0;entryDy=0;exitX=0.5;exitY=0;exitDx=0;exitDy=0;" parent="1" source="o0toH3FBeBLkS_F7yODT-10" target="o0toH3FBeBLkS_F7yODT-5" edge="1">
          <mxGeometry width="50" height="50" relative="1" as="geometry">
            <mxPoint x="100" y="280" as="sourcePoint" />
            <mxPoint x="140" y="300" as="targetPoint" />
            <Array as="points" />
          </mxGeometry>
        </mxCell>
        <mxCell id="o0toH3FBeBLkS_F7yODT-7" value="Да" style="endArrow=none;html=1;rounded=0;edgeStyle=orthogonalEdgeStyle;entryX=1;entryY=0.5;entryDx=0;entryDy=0;exitX=0.5;exitY=0;exitDx=0;exitDy=0;" parent="1" source="tT68EpgfivtJY7b6edRL-1" target="o0toH3FBeBLkS_F7yODT-5" edge="1">
          <mxGeometry width="50" height="50" relative="1" as="geometry">
            <mxPoint x="260" y="280" as="sourcePoint" />
            <mxPoint x="240" y="260" as="targetPoint" />
            <Array as="points">
              <mxPoint x="260" y="230" />
            </Array>
          </mxGeometry>
        </mxCell>
        <mxCell id="o0toH3FBeBLkS_F7yODT-9" value="" style="endArrow=none;html=1;rounded=0;edgeStyle=orthogonalEdgeStyle;exitX=0.5;exitY=0;exitDx=0;exitDy=0;entryX=0.5;entryY=1;entryDx=0;entryDy=0;" parent="1" source="o0toH3FBeBLkS_F7yODT-10" target="tT68EpgfivtJY7b6edRL-1" edge="1">
          <mxGeometry width="50" height="50" relative="1" as="geometry">
            <mxPoint x="260" y="360" as="sourcePoint" />
            <mxPoint x="260" y="340" as="targetPoint" />
            <Array as="points">
              <mxPoint x="100" y="360" />
              <mxPoint x="260" y="360" />
            </Array>
          </mxGeometry>
        </mxCell>
        <mxCell id="o0toH3FBeBLkS_F7yODT-10" value="&lt;br style=&quot;border-color: var(--border-color);&quot;&gt;error.status_code&lt;br style=&quot;border-color: var(--border-color);&quot;&gt;== OK" style="rhombus;whiteSpace=wrap;html=1;" parent="1" vertex="1">
          <mxGeometry x="40" y="380" width="120" height="60" as="geometry" />
        </mxCell>
        <mxCell id="o0toH3FBeBLkS_F7yODT-11" value="" style="endArrow=none;html=1;rounded=0;edgeStyle=orthogonalEdgeStyle;entryX=0.5;entryY=1;entryDx=0;entryDy=0;exitX=0.5;exitY=0;exitDx=0;exitDy=0;" parent="1" source="o0toH3FBeBLkS_F7yODT-20" target="o0toH3FBeBLkS_F7yODT-10" edge="1">
          <mxGeometry width="50" height="50" relative="1" as="geometry">
            <mxPoint x="100" y="560" as="sourcePoint" />
            <mxPoint x="140" y="480" as="targetPoint" />
            <Array as="points" />
          </mxGeometry>
        </mxCell>
        <mxCell id="o0toH3FBeBLkS_F7yODT-12" value="Да" style="endArrow=none;html=1;rounded=0;edgeStyle=orthogonalEdgeStyle;entryX=1;entryY=0.5;entryDx=0;entryDy=0;exitX=0.5;exitY=0;exitDx=0;exitDy=0;" parent="1" source="tT68EpgfivtJY7b6edRL-2" target="o0toH3FBeBLkS_F7yODT-10" edge="1">
          <mxGeometry width="50" height="50" relative="1" as="geometry">
            <mxPoint x="260" y="460" as="sourcePoint" />
            <mxPoint x="240" y="440" as="targetPoint" />
            <Array as="points">
              <mxPoint x="260" y="410" />
            </Array>
          </mxGeometry>
        </mxCell>
        <mxCell id="o0toH3FBeBLkS_F7yODT-14" value="" style="endArrow=none;html=1;rounded=0;edgeStyle=orthogonalEdgeStyle;entryX=0.5;entryY=1;entryDx=0;entryDy=0;exitX=0.5;exitY=0;exitDx=0;exitDy=0;" parent="1" source="o0toH3FBeBLkS_F7yODT-20" target="tT68EpgfivtJY7b6edRL-2" edge="1">
          <mxGeometry width="50" height="50" relative="1" as="geometry">
            <mxPoint x="100" y="560" as="sourcePoint" />
            <mxPoint x="260" y="520" as="targetPoint" />
            <Array as="points">
              <mxPoint x="100" y="540" />
              <mxPoint x="260" y="540" />
            </Array>
          </mxGeometry>
        </mxCell>
        <mxCell id="o0toH3FBeBLkS_F7yODT-20" value="&lt;br style=&quot;border-color: var(--border-color);&quot;&gt;error.status_code&lt;br style=&quot;border-color: var(--border-color);&quot;&gt;== OK" style="rhombus;whiteSpace=wrap;html=1;" parent="1" vertex="1">
          <mxGeometry x="40" y="560" width="120" height="60" as="geometry" />
        </mxCell>
        <mxCell id="o0toH3FBeBLkS_F7yODT-21" value="" style="endArrow=none;html=1;rounded=0;edgeStyle=orthogonalEdgeStyle;entryX=0.5;entryY=1;entryDx=0;entryDy=0;exitX=0.5;exitY=0;exitDx=0;exitDy=0;exitPerimeter=0;" parent="1" source="o0toH3FBeBLkS_F7yODT-27" target="o0toH3FBeBLkS_F7yODT-20" edge="1">
          <mxGeometry width="50" height="50" relative="1" as="geometry">
            <mxPoint x="100" y="640" as="sourcePoint" />
            <mxPoint x="140" y="660" as="targetPoint" />
            <Array as="points" />
          </mxGeometry>
        </mxCell>
        <mxCell id="o0toH3FBeBLkS_F7yODT-22" value="Да" style="endArrow=none;html=1;rounded=0;edgeStyle=orthogonalEdgeStyle;entryX=1;entryY=0.5;entryDx=0;entryDy=0;exitX=0.5;exitY=0;exitDx=0;exitDy=0;" parent="1" source="tT68EpgfivtJY7b6edRL-3" target="o0toH3FBeBLkS_F7yODT-20" edge="1">
          <mxGeometry width="50" height="50" relative="1" as="geometry">
            <mxPoint x="420" y="640" as="sourcePoint" />
            <mxPoint x="240" y="620" as="targetPoint" />
            <Array as="points">
              <mxPoint x="260" y="590" />
            </Array>
          </mxGeometry>
        </mxCell>
        <mxCell id="o0toH3FBeBLkS_F7yODT-24" value="" style="endArrow=none;html=1;rounded=0;edgeStyle=orthogonalEdgeStyle;entryX=0.5;entryY=1;entryDx=0;entryDy=0;exitX=0.5;exitY=0;exitDx=0;exitDy=0;" parent="1" source="o0toH3FBeBLkS_F7yODT-25" target="tT68EpgfivtJY7b6edRL-3" edge="1">
          <mxGeometry width="50" height="50" relative="1" as="geometry">
            <mxPoint x="260" y="710" as="sourcePoint" />
            <mxPoint x="260" y="690" as="targetPoint" />
            <Array as="points" />
          </mxGeometry>
        </mxCell>
        <mxCell id="o0toH3FBeBLkS_F7yODT-25" value="error = main_menu(&amp;nbsp;&lt;br style=&quot;border-color: var(--border-color); text-align: right;&quot;&gt;&lt;span style=&quot;text-align: right;&quot;&gt;&amp;amp;cars, &amp;amp;engines)&lt;/span&gt;" style="shape=process;whiteSpace=wrap;html=1;backgroundOutline=1;" parent="1" vertex="1">
          <mxGeometry x="200" y="710" width="120" height="60" as="geometry" />
        </mxCell>
        <mxCell id="o0toH3FBeBLkS_F7yODT-26" value="" style="endArrow=none;html=1;rounded=0;edgeStyle=orthogonalEdgeStyle;entryX=0.5;entryY=1;entryDx=0;entryDy=0;exitX=0.5;exitY=0;exitDx=0;exitDy=0;exitPerimeter=0;" parent="1" source="o0toH3FBeBLkS_F7yODT-27" target="o0toH3FBeBLkS_F7yODT-25" edge="1">
          <mxGeometry width="50" height="50" relative="1" as="geometry">
            <mxPoint x="260" y="800" as="sourcePoint" />
            <mxPoint x="270" y="790" as="targetPoint" />
            <Array as="points">
              <mxPoint x="100" y="800" />
              <mxPoint x="260" y="800" />
            </Array>
          </mxGeometry>
        </mxCell>
        <mxCell id="o0toH3FBeBLkS_F7yODT-27" value="Конец" style="strokeWidth=2;html=1;shape=mxgraph.flowchart.terminator;whiteSpace=wrap;" parent="1" vertex="1">
          <mxGeometry x="40" y="820" width="120" height="60" as="geometry" />
        </mxCell>
        <mxCell id="o0toH3FBeBLkS_F7yODT-39" value="main_menu&lt;br&gt;начало" style="strokeWidth=2;html=1;shape=mxgraph.flowchart.terminator;whiteSpace=wrap;" parent="1" vertex="1">
          <mxGeometry x="200" y="1240" width="120" height="60" as="geometry" />
        </mxCell>
        <mxCell id="o0toH3FBeBLkS_F7yODT-40" value="" style="endArrow=none;html=1;rounded=0;edgeStyle=orthogonalEdgeStyle;entryX=0.5;entryY=1;entryDx=0;entryDy=0;entryPerimeter=0;exitX=0.5;exitY=0;exitDx=0;exitDy=0;" parent="1" source="o0toH3FBeBLkS_F7yODT-41" target="o0toH3FBeBLkS_F7yODT-39" edge="1">
          <mxGeometry width="50" height="50" relative="1" as="geometry">
            <mxPoint x="260" y="1320" as="sourcePoint" />
            <mxPoint x="260" y="1320" as="targetPoint" />
            <Array as="points" />
          </mxGeometry>
        </mxCell>
        <mxCell id="o0toH3FBeBLkS_F7yODT-41" value="error = {OK,&quot; &quot;}" style="rounded=0;whiteSpace=wrap;html=1;" parent="1" vertex="1">
          <mxGeometry x="200" y="1320" width="120" height="60" as="geometry" />
        </mxCell>
        <mxCell id="o0toH3FBeBLkS_F7yODT-42" value="" style="endArrow=none;html=1;rounded=0;edgeStyle=orthogonalEdgeStyle;entryX=0.5;entryY=1;entryDx=0;entryDy=0;exitX=0.5;exitY=0;exitDx=0;exitDy=0;" parent="1" source="1FV48D-tviv1m5VT_ewc-2" target="o0toH3FBeBLkS_F7yODT-41" edge="1">
          <mxGeometry width="50" height="50" relative="1" as="geometry">
            <mxPoint x="260" y="1400" as="sourcePoint" />
            <mxPoint x="310" y="1410" as="targetPoint" />
            <Array as="points" />
          </mxGeometry>
        </mxCell>
        <mxCell id="o0toH3FBeBLkS_F7yODT-44" value="" style="endArrow=none;html=1;rounded=0;edgeStyle=orthogonalEdgeStyle;entryX=0.5;entryY=1;entryDx=0;entryDy=0;exitX=0.5;exitY=0;exitDx=0;exitDy=0;exitPerimeter=0;" parent="1" source="o0toH3FBeBLkS_F7yODT-45" target="1FV48D-tviv1m5VT_ewc-2" edge="1">
          <mxGeometry width="50" height="50" relative="1" as="geometry">
            <mxPoint x="260" y="1480" as="sourcePoint" />
            <mxPoint x="260" y="1460" as="targetPoint" />
            <Array as="points" />
          </mxGeometry>
        </mxCell>
        <mxCell id="o0toH3FBeBLkS_F7yODT-45" value="Ввод&amp;nbsp;&lt;br&gt;menu_selection" style="shape=parallelogram;perimeter=parallelogramPerimeter;whiteSpace=wrap;html=1;fixedSize=1;" parent="1" vertex="1">
          <mxGeometry x="200" y="1480" width="120" height="60" as="geometry" />
        </mxCell>
        <mxCell id="o0toH3FBeBLkS_F7yODT-46" value="" style="endArrow=none;html=1;rounded=0;edgeStyle=orthogonalEdgeStyle;entryX=0.5;entryY=1;entryDx=0;entryDy=0;" parent="1" target="o0toH3FBeBLkS_F7yODT-45" edge="1">
          <mxGeometry width="50" height="50" relative="1" as="geometry">
            <mxPoint x="260" y="1560" as="sourcePoint" />
            <mxPoint x="270" y="1630" as="targetPoint" />
            <Array as="points">
              <mxPoint x="260" y="1550" />
              <mxPoint x="260" y="1550" />
            </Array>
          </mxGeometry>
        </mxCell>
        <mxCell id="o0toH3FBeBLkS_F7yODT-47" value="menu_selection" style="rhombus;whiteSpace=wrap;html=1;" parent="1" vertex="1">
          <mxGeometry x="200" y="1560" width="120" height="60" as="geometry" />
        </mxCell>
        <mxCell id="o0toH3FBeBLkS_F7yODT-48" value="" style="endArrow=none;html=1;rounded=0;edgeStyle=orthogonalEdgeStyle;entryX=0.5;entryY=1;entryDx=0;entryDy=0;exitX=0.5;exitY=0;exitDx=0;exitDy=0;" parent="1" source="o0toH3FBeBLkS_F7yODT-80" target="o0toH3FBeBLkS_F7yODT-47" edge="1">
          <mxGeometry width="50" height="50" relative="1" as="geometry">
            <mxPoint x="260" y="1820" as="sourcePoint" />
            <mxPoint x="300" y="1660" as="targetPoint" />
            <Array as="points" />
          </mxGeometry>
        </mxCell>
        <mxCell id="o0toH3FBeBLkS_F7yODT-53" value="&lt;font style=&quot;font-size: 12px;&quot;&gt;error = add_new_data(&lt;br&gt;cars, engines)&lt;/font&gt;" style="shape=process;whiteSpace=wrap;html=1;backgroundOutline=1;" parent="1" vertex="1">
          <mxGeometry x="360" y="1720" width="120" height="60" as="geometry" />
        </mxCell>
        <mxCell id="o0toH3FBeBLkS_F7yODT-54" value="" style="endArrow=none;html=1;rounded=0;edgeStyle=orthogonalEdgeStyle;entryX=0.5;entryY=1;entryDx=0;entryDy=0;exitX=0.5;exitY=0;exitDx=0;exitDy=0;" parent="1" source="o0toH3FBeBLkS_F7yODT-80" target="o0toH3FBeBLkS_F7yODT-53" edge="1">
          <mxGeometry width="50" height="50" relative="1" as="geometry">
            <mxPoint x="260" y="1820" as="sourcePoint" />
            <mxPoint x="430" y="1790" as="targetPoint" />
            <Array as="points">
              <mxPoint x="260" y="1800" />
              <mxPoint x="420" y="1800" />
            </Array>
          </mxGeometry>
        </mxCell>
        <mxCell id="o0toH3FBeBLkS_F7yODT-55" value="&lt;font style=&quot;font-size: 8px;&quot;&gt;ABOUT&lt;/font&gt;" style="endArrow=none;html=1;rounded=0;edgeStyle=orthogonalEdgeStyle;entryX=0.5;entryY=1;entryDx=0;entryDy=0;exitX=0.5;exitY=0;exitDx=0;exitDy=0;" parent="1" source="o0toH3FBeBLkS_F7yODT-80" target="o0toH3FBeBLkS_F7yODT-47" edge="1">
          <mxGeometry x="0.3333" width="50" height="50" relative="1" as="geometry">
            <mxPoint x="260" y="1820" as="sourcePoint" />
            <mxPoint x="320" y="1660" as="targetPoint" />
            <Array as="points">
              <mxPoint x="260" y="1800" />
              <mxPoint x="340" y="1800" />
              <mxPoint x="340" y="1710" />
              <mxPoint x="260" y="1710" />
            </Array>
            <mxPoint as="offset" />
          </mxGeometry>
        </mxCell>
        <mxCell id="o0toH3FBeBLkS_F7yODT-56" value="&lt;font style=&quot;font-size: 12px;&quot;&gt;error = edit_data(&lt;br style=&quot;border-color: var(--border-color);&quot;&gt;*cars, *engines)&lt;/font&gt;" style="shape=process;whiteSpace=wrap;html=1;backgroundOutline=1;" parent="1" vertex="1">
          <mxGeometry x="500" y="1720" width="120" height="60" as="geometry" />
        </mxCell>
        <mxCell id="o0toH3FBeBLkS_F7yODT-57" value="" style="endArrow=none;html=1;rounded=0;edgeStyle=orthogonalEdgeStyle;entryX=0.5;entryY=1;entryDx=0;entryDy=0;exitX=0.5;exitY=0;exitDx=0;exitDy=0;" parent="1" source="o0toH3FBeBLkS_F7yODT-80" target="o0toH3FBeBLkS_F7yODT-56" edge="1">
          <mxGeometry width="50" height="50" relative="1" as="geometry">
            <mxPoint x="260" y="1820" as="sourcePoint" />
            <mxPoint x="570" y="1790" as="targetPoint" />
            <Array as="points">
              <mxPoint x="260" y="1800" />
              <mxPoint x="560" y="1800" />
            </Array>
          </mxGeometry>
        </mxCell>
        <mxCell id="o0toH3FBeBLkS_F7yODT-58" value="&lt;font style=&quot;font-size: 12px;&quot;&gt;error = delete_data(cars, engines)&lt;/font&gt;" style="shape=process;whiteSpace=wrap;html=1;backgroundOutline=1;" parent="1" vertex="1">
          <mxGeometry x="640" y="1720" width="120" height="60" as="geometry" />
        </mxCell>
        <mxCell id="o0toH3FBeBLkS_F7yODT-59" value="" style="endArrow=none;html=1;rounded=0;edgeStyle=orthogonalEdgeStyle;entryX=0.5;entryY=1;entryDx=0;entryDy=0;exitX=0.5;exitY=0;exitDx=0;exitDy=0;" parent="1" source="o0toH3FBeBLkS_F7yODT-80" target="o0toH3FBeBLkS_F7yODT-58" edge="1">
          <mxGeometry width="50" height="50" relative="1" as="geometry">
            <mxPoint x="260" y="1820" as="sourcePoint" />
            <mxPoint x="710" y="1790" as="targetPoint" />
            <Array as="points">
              <mxPoint x="260" y="1800" />
              <mxPoint x="700" y="1800" />
            </Array>
          </mxGeometry>
        </mxCell>
        <mxCell id="o0toH3FBeBLkS_F7yODT-61" value="" style="endArrow=none;html=1;rounded=0;edgeStyle=orthogonalEdgeStyle;entryX=0.5;entryY=1;entryDx=0;entryDy=0;exitX=0.5;exitY=0;exitDx=0;exitDy=0;" parent="1" source="o0toH3FBeBLkS_F7yODT-80" target="tT68EpgfivtJY7b6edRL-4" edge="1">
          <mxGeometry width="50" height="50" relative="1" as="geometry">
            <mxPoint x="260" y="1820" as="sourcePoint" />
            <mxPoint x="840" y="1780" as="targetPoint" />
            <Array as="points">
              <mxPoint x="260" y="1800" />
              <mxPoint x="840" y="1800" />
            </Array>
          </mxGeometry>
        </mxCell>
        <mxCell id="o0toH3FBeBLkS_F7yODT-62" value="&lt;font style=&quot;font-size: 12px;&quot;&gt;error = search_data(&lt;br style=&quot;border-color: var(--border-color);&quot;&gt;*cars, *engines)&lt;/font&gt;" style="shape=process;whiteSpace=wrap;html=1;backgroundOutline=1;" parent="1" vertex="1">
          <mxGeometry x="920" y="1720" width="120" height="60" as="geometry" />
        </mxCell>
        <mxCell id="o0toH3FBeBLkS_F7yODT-63" value="" style="endArrow=none;html=1;rounded=0;edgeStyle=orthogonalEdgeStyle;entryX=0.5;entryY=1;entryDx=0;entryDy=0;exitX=0.5;exitY=0;exitDx=0;exitDy=0;" parent="1" source="o0toH3FBeBLkS_F7yODT-80" target="o0toH3FBeBLkS_F7yODT-62" edge="1">
          <mxGeometry width="50" height="50" relative="1" as="geometry">
            <mxPoint x="260" y="1820" as="sourcePoint" />
            <mxPoint x="990" y="1790" as="targetPoint" />
            <Array as="points">
              <mxPoint x="260" y="1800" />
              <mxPoint x="980" y="1800" />
            </Array>
          </mxGeometry>
        </mxCell>
        <mxCell id="o0toH3FBeBLkS_F7yODT-64" value="&lt;font style=&quot;font-size: 12px;&quot;&gt;error = sort_data(&lt;br style=&quot;border-color: var(--border-color);&quot;&gt;*cars, *engines)&lt;/font&gt;" style="shape=process;whiteSpace=wrap;html=1;backgroundOutline=1;" parent="1" vertex="1">
          <mxGeometry x="1060" y="1720" width="120" height="60" as="geometry" />
        </mxCell>
        <mxCell id="o0toH3FBeBLkS_F7yODT-65" value="" style="endArrow=none;html=1;rounded=0;edgeStyle=orthogonalEdgeStyle;entryX=0.5;entryY=1;entryDx=0;entryDy=0;exitX=0.5;exitY=0;exitDx=0;exitDy=0;" parent="1" source="o0toH3FBeBLkS_F7yODT-80" target="o0toH3FBeBLkS_F7yODT-64" edge="1">
          <mxGeometry width="50" height="50" relative="1" as="geometry">
            <mxPoint x="260" y="1820" as="sourcePoint" />
            <mxPoint x="1130" y="1790" as="targetPoint" />
            <Array as="points">
              <mxPoint x="260" y="1800" />
              <mxPoint x="1120" y="1800" />
            </Array>
          </mxGeometry>
        </mxCell>
        <mxCell id="o0toH3FBeBLkS_F7yODT-66" value="&lt;font style=&quot;font-size: 12px;&quot;&gt;error = exit_handler(&lt;br style=&quot;border-color: var(--border-color);&quot;&gt;*cars, *engines)&lt;/font&gt;" style="shape=process;whiteSpace=wrap;html=1;backgroundOutline=1;" parent="1" vertex="1">
          <mxGeometry x="1200" y="1720" width="120" height="60" as="geometry" />
        </mxCell>
        <mxCell id="o0toH3FBeBLkS_F7yODT-67" value="" style="endArrow=none;html=1;rounded=0;edgeStyle=orthogonalEdgeStyle;entryX=0.5;entryY=1;entryDx=0;entryDy=0;exitX=0.5;exitY=0;exitDx=0;exitDy=0;" parent="1" source="o0toH3FBeBLkS_F7yODT-80" target="o0toH3FBeBLkS_F7yODT-66" edge="1">
          <mxGeometry width="50" height="50" relative="1" as="geometry">
            <mxPoint x="260" y="1820" as="sourcePoint" />
            <mxPoint x="1270" y="1790" as="targetPoint" />
            <Array as="points">
              <mxPoint x="260" y="1800" />
              <mxPoint x="1260" y="1800" />
            </Array>
          </mxGeometry>
        </mxCell>
        <mxCell id="o0toH3FBeBLkS_F7yODT-68" value="&lt;font style=&quot;font-size: 12px;&quot;&gt;Вывод ошибки&lt;/font&gt;" style="shape=parallelogram;perimeter=parallelogramPerimeter;whiteSpace=wrap;html=1;fixedSize=1;" parent="1" vertex="1">
          <mxGeometry x="1340.5" y="1720" width="120" height="60" as="geometry" />
        </mxCell>
        <mxCell id="o0toH3FBeBLkS_F7yODT-69" value="" style="endArrow=none;html=1;rounded=0;edgeStyle=orthogonalEdgeStyle;entryX=0.5;entryY=1;entryDx=0;entryDy=0;exitX=0.5;exitY=0;exitDx=0;exitDy=0;" parent="1" source="o0toH3FBeBLkS_F7yODT-80" target="o0toH3FBeBLkS_F7yODT-68" edge="1">
          <mxGeometry width="50" height="50" relative="1" as="geometry">
            <mxPoint x="260" y="1820" as="sourcePoint" />
            <mxPoint x="1410.5" y="1870" as="targetPoint" />
            <Array as="points">
              <mxPoint x="260" y="1800" />
              <mxPoint x="1401" y="1800" />
            </Array>
          </mxGeometry>
        </mxCell>
        <mxCell id="o0toH3FBeBLkS_F7yODT-70" value="&lt;font style=&quot;font-size: 8px;&quot;&gt;ADD&lt;/font&gt;" style="endArrow=none;html=1;rounded=0;edgeStyle=orthogonalEdgeStyle;entryX=0.5;entryY=1;entryDx=0;entryDy=0;exitX=0.5;exitY=0;exitDx=0;exitDy=0;" parent="1" source="o0toH3FBeBLkS_F7yODT-53" target="o0toH3FBeBLkS_F7yODT-47" edge="1">
          <mxGeometry x="0.1538" width="50" height="50" relative="1" as="geometry">
            <mxPoint x="560" y="1570" as="sourcePoint" />
            <mxPoint x="610" y="1520" as="targetPoint" />
            <Array as="points">
              <mxPoint x="420" y="1700" />
              <mxPoint x="260" y="1700" />
            </Array>
            <mxPoint as="offset" />
          </mxGeometry>
        </mxCell>
        <mxCell id="o0toH3FBeBLkS_F7yODT-71" value="&lt;font style=&quot;font-size: 8px;&quot;&gt;EDIT&lt;/font&gt;" style="endArrow=none;html=1;rounded=0;edgeStyle=orthogonalEdgeStyle;entryX=0.5;entryY=1;entryDx=0;entryDy=0;exitX=0.5;exitY=0;exitDx=0;exitDy=0;" parent="1" source="o0toH3FBeBLkS_F7yODT-56" target="o0toH3FBeBLkS_F7yODT-47" edge="1">
          <mxGeometry x="0.5" width="50" height="50" relative="1" as="geometry">
            <mxPoint x="550" y="1670" as="sourcePoint" />
            <mxPoint x="600" y="1620" as="targetPoint" />
            <Array as="points">
              <mxPoint x="560" y="1690" />
              <mxPoint x="260" y="1690" />
            </Array>
            <mxPoint as="offset" />
          </mxGeometry>
        </mxCell>
        <mxCell id="o0toH3FBeBLkS_F7yODT-72" value="&lt;font style=&quot;font-size: 8px;&quot;&gt;DELETE&lt;/font&gt;" style="endArrow=none;html=1;rounded=0;edgeStyle=orthogonalEdgeStyle;entryX=0.5;entryY=1;entryDx=0;entryDy=0;exitX=0.5;exitY=0;exitDx=0;exitDy=0;" parent="1" source="o0toH3FBeBLkS_F7yODT-58" target="o0toH3FBeBLkS_F7yODT-47" edge="1">
          <mxGeometry x="0.6667" width="50" height="50" relative="1" as="geometry">
            <mxPoint x="620" y="1690" as="sourcePoint" />
            <mxPoint x="670" y="1640" as="targetPoint" />
            <Array as="points">
              <mxPoint x="700" y="1680" />
              <mxPoint x="260" y="1680" />
            </Array>
            <mxPoint as="offset" />
          </mxGeometry>
        </mxCell>
        <mxCell id="o0toH3FBeBLkS_F7yODT-73" value="" style="endArrow=none;html=1;rounded=0;edgeStyle=orthogonalEdgeStyle;exitX=0.5;exitY=0;exitDx=0;exitDy=0;entryX=0.5;entryY=1;entryDx=0;entryDy=0;" parent="1" source="o0toH3FBeBLkS_F7yODT-68" target="o0toH3FBeBLkS_F7yODT-47" edge="1">
          <mxGeometry width="50" height="50" relative="1" as="geometry">
            <mxPoint x="1080" y="1580" as="sourcePoint" />
            <mxPoint x="1130" y="1530" as="targetPoint" />
            <Array as="points">
              <mxPoint x="1401" y="1630" />
              <mxPoint x="260" y="1630" />
            </Array>
          </mxGeometry>
        </mxCell>
        <mxCell id="o0toH3FBeBLkS_F7yODT-74" value="&lt;font style=&quot;font-size: 8px;&quot;&gt;PRINT&lt;/font&gt;" style="endArrow=none;html=1;rounded=0;edgeStyle=orthogonalEdgeStyle;entryX=0.5;entryY=1;entryDx=0;entryDy=0;exitX=0.5;exitY=0;exitDx=0;exitDy=0;" parent="1" source="tT68EpgfivtJY7b6edRL-4" target="o0toH3FBeBLkS_F7yODT-47" edge="1">
          <mxGeometry x="0.7647" width="50" height="50" relative="1" as="geometry">
            <mxPoint x="840" y="1720" as="sourcePoint" />
            <mxPoint x="710" y="1370" as="targetPoint" />
            <mxPoint as="offset" />
          </mxGeometry>
        </mxCell>
        <mxCell id="o0toH3FBeBLkS_F7yODT-75" value="&lt;font style=&quot;font-size: 8px;&quot;&gt;SEARCH&lt;/font&gt;" style="endArrow=none;html=1;rounded=0;edgeStyle=orthogonalEdgeStyle;entryX=0.5;entryY=1;entryDx=0;entryDy=0;exitX=0.5;exitY=0;exitDx=0;exitDy=0;" parent="1" source="o0toH3FBeBLkS_F7yODT-62" target="o0toH3FBeBLkS_F7yODT-47" edge="1">
          <mxGeometry x="0.8293" width="50" height="50" relative="1" as="geometry">
            <mxPoint x="500" y="1480" as="sourcePoint" />
            <mxPoint x="550" y="1430" as="targetPoint" />
            <Array as="points">
              <mxPoint x="980" y="1660" />
              <mxPoint x="260" y="1660" />
            </Array>
            <mxPoint as="offset" />
          </mxGeometry>
        </mxCell>
        <mxCell id="o0toH3FBeBLkS_F7yODT-76" value="&lt;font style=&quot;font-size: 8px;&quot;&gt;SORT&lt;/font&gt;" style="endArrow=none;html=1;rounded=0;edgeStyle=orthogonalEdgeStyle;entryX=0.5;entryY=1;entryDx=0;entryDy=0;exitX=0.5;exitY=0;exitDx=0;exitDy=0;" parent="1" source="o0toH3FBeBLkS_F7yODT-64" target="o0toH3FBeBLkS_F7yODT-47" edge="1">
          <mxGeometry x="0.875" width="50" height="50" relative="1" as="geometry">
            <mxPoint x="580" y="1500" as="sourcePoint" />
            <mxPoint x="630" y="1450" as="targetPoint" />
            <Array as="points">
              <mxPoint x="1120" y="1650" />
              <mxPoint x="260" y="1650" />
            </Array>
            <mxPoint as="offset" />
          </mxGeometry>
        </mxCell>
        <mxCell id="o0toH3FBeBLkS_F7yODT-77" value="&lt;font style=&quot;font-size: 8px;&quot;&gt;EXIT&lt;/font&gt;" style="endArrow=none;html=1;rounded=0;edgeStyle=orthogonalEdgeStyle;entryX=0.5;entryY=1;entryDx=0;entryDy=0;exitX=0.5;exitY=0;exitDx=0;exitDy=0;" parent="1" source="o0toH3FBeBLkS_F7yODT-66" target="o0toH3FBeBLkS_F7yODT-47" edge="1">
          <mxGeometry x="0.9091" width="50" height="50" relative="1" as="geometry">
            <mxPoint x="710" y="1540" as="sourcePoint" />
            <mxPoint x="760" y="1490" as="targetPoint" />
            <Array as="points">
              <mxPoint x="1260" y="1640" />
              <mxPoint x="260" y="1640" />
            </Array>
            <mxPoint as="offset" />
          </mxGeometry>
        </mxCell>
        <mxCell id="o0toH3FBeBLkS_F7yODT-80" value="Условие" style="rhombus;whiteSpace=wrap;html=1;" parent="1" vertex="1">
          <mxGeometry x="200" y="1820" width="120" height="60" as="geometry" />
        </mxCell>
        <mxCell id="o0toH3FBeBLkS_F7yODT-81" value="" style="endArrow=none;html=1;rounded=0;edgeStyle=orthogonalEdgeStyle;entryX=0.5;entryY=1;entryDx=0;entryDy=0;exitX=0.5;exitY=0;exitDx=0;exitDy=0;" parent="1" source="o0toH3FBeBLkS_F7yODT-84" target="o0toH3FBeBLkS_F7yODT-80" edge="1">
          <mxGeometry width="50" height="50" relative="1" as="geometry">
            <mxPoint x="260" y="1900" as="sourcePoint" />
            <mxPoint x="300" y="1920" as="targetPoint" />
            <Array as="points" />
          </mxGeometry>
        </mxCell>
        <mxCell id="o0toH3FBeBLkS_F7yODT-82" value="Да" style="endArrow=none;html=1;rounded=0;edgeStyle=orthogonalEdgeStyle;entryX=1;entryY=0.5;entryDx=0;entryDy=0;startArrow=classic;startFill=1;" parent="1" target="o0toH3FBeBLkS_F7yODT-80" edge="1">
          <mxGeometry x="0.9863" width="50" height="50" relative="1" as="geometry">
            <mxPoint x="260" y="1390" as="sourcePoint" />
            <mxPoint x="400" y="1960" as="targetPoint" />
            <Array as="points">
              <mxPoint x="1480" y="1390" />
              <mxPoint x="1480" y="1850" />
            </Array>
            <mxPoint as="offset" />
          </mxGeometry>
        </mxCell>
        <mxCell id="o0toH3FBeBLkS_F7yODT-84" value="Вывод error" style="shape=parallelogram;perimeter=parallelogramPerimeter;whiteSpace=wrap;html=1;fixedSize=1;" parent="1" vertex="1">
          <mxGeometry x="200" y="1900" width="120" height="60" as="geometry" />
        </mxCell>
        <mxCell id="o0toH3FBeBLkS_F7yODT-85" value="" style="endArrow=none;html=1;rounded=0;edgeStyle=orthogonalEdgeStyle;entryX=0.5;entryY=1;entryDx=0;entryDy=0;exitX=0.5;exitY=0;exitDx=0;exitDy=0;exitPerimeter=0;" parent="1" source="o0toH3FBeBLkS_F7yODT-86" target="o0toH3FBeBLkS_F7yODT-84" edge="1">
          <mxGeometry width="50" height="50" relative="1" as="geometry">
            <mxPoint x="260" y="1980" as="sourcePoint" />
            <mxPoint x="270" y="2050" as="targetPoint" />
            <Array as="points" />
          </mxGeometry>
        </mxCell>
        <mxCell id="o0toH3FBeBLkS_F7yODT-86" value="main_menu&lt;br style=&quot;border-color: var(--border-color);&quot;&gt;конец" style="strokeWidth=2;html=1;shape=mxgraph.flowchart.terminator;whiteSpace=wrap;" parent="1" vertex="1">
          <mxGeometry x="200" y="1980" width="120" height="60" as="geometry" />
        </mxCell>
        <mxCell id="o0toH3FBeBLkS_F7yODT-88" value="menu_selection!=&lt;br style=&quot;border-color: var(--border-color); text-align: center;&quot;&gt;&lt;span style=&quot;text-align: center;&quot;&gt;EXIT &amp;amp;&amp;amp; &lt;br&gt;error.status_code&lt;br&gt;&amp;nbsp;== OK&lt;/span&gt;" style="strokeWidth=2;html=1;shape=mxgraph.flowchart.annotation_1;align=right;pointerEvents=1;direction=west;" parent="1" vertex="1">
          <mxGeometry x="160" y="1820" width="10" height="60" as="geometry" />
        </mxCell>
        <mxCell id="o0toH3FBeBLkS_F7yODT-89" value="" style="endArrow=none;dashed=1;html=1;rounded=0;edgeStyle=orthogonalEdgeStyle;exitX=0;exitY=0.5;exitDx=0;exitDy=0;exitPerimeter=0;entryX=0;entryY=0.5;entryDx=0;entryDy=0;" parent="1" source="o0toH3FBeBLkS_F7yODT-88" target="o0toH3FBeBLkS_F7yODT-80" edge="1">
          <mxGeometry width="50" height="50" relative="1" as="geometry">
            <mxPoint x="230" y="1930" as="sourcePoint" />
            <mxPoint x="190" y="1820" as="targetPoint" />
            <Array as="points" />
          </mxGeometry>
        </mxCell>
        <mxCell id="1FV48D-tviv1m5VT_ewc-2" value="Вывод&lt;br style=&quot;border-color: var(--border-color);&quot;&gt;меню&lt;br style=&quot;border-color: var(--border-color);&quot;&gt;помощи" style="shape=parallelogram;perimeter=parallelogramPerimeter;whiteSpace=wrap;html=1;fixedSize=1;" parent="1" vertex="1">
          <mxGeometry x="200" y="1400" width="120" height="60" as="geometry" />
        </mxCell>
        <mxCell id="tT68EpgfivtJY7b6edRL-1" value="Ввод в error&lt;br&gt;engines из&amp;nbsp;&lt;br&gt;файла" style="shape=parallelogram;perimeter=parallelogramPerimeter;whiteSpace=wrap;html=1;fixedSize=1;" vertex="1" parent="1">
          <mxGeometry x="200" y="280" width="120" height="60" as="geometry" />
        </mxCell>
        <mxCell id="tT68EpgfivtJY7b6edRL-2" value="Ввод в error&lt;br&gt;cars из файла" style="shape=parallelogram;perimeter=parallelogramPerimeter;whiteSpace=wrap;html=1;fixedSize=1;" vertex="1" parent="1">
          <mxGeometry x="200" y="460" width="120" height="60" as="geometry" />
        </mxCell>
        <mxCell id="tT68EpgfivtJY7b6edRL-3" value="Вывод&amp;nbsp;&lt;br&gt;cars и engines" style="shape=parallelogram;perimeter=parallelogramPerimeter;whiteSpace=wrap;html=1;fixedSize=1;" vertex="1" parent="1">
          <mxGeometry x="200" y="630" width="120" height="60" as="geometry" />
        </mxCell>
        <mxCell id="tT68EpgfivtJY7b6edRL-4" value="Вывод&amp;nbsp;&lt;br&gt;cars, engines" style="shape=parallelogram;perimeter=parallelogramPerimeter;whiteSpace=wrap;html=1;fixedSize=1;" vertex="1" parent="1">
          <mxGeometry x="780" y="1720" width="120" height="60" as="geometry" />
        </mxCell>
      </root>
    </mxGraphModel>
  </diagram>
</mxfile>
